<?xml version="1.0" encoding="UTF-8" standalone="no"?>
<svg width="148pt" height="148pt" viewBox="0.00 0.00 148.00 148.00" xmlns="http://www.w3.org/2000/svg" xmlns:xlink="http://www.w3.org/1999/xlink">
<g transform="translate(4 144)"> 
<g style="fill:none;stroke:black">
<path d="M74,-10C85,-21 119,-55 130,-66"/>
<path d="M70,-12C70,-33 70,-107 70,-128"/>
<path d="M66,-10C55,-21 21,-55 10,-66"/>
<path d="M130,-74C119,-85 85,-119 74,-130"/>
<path d="M12,-70C33,-70 107,-70 128,-70"/>
<path d="M10,-74C21,-85 55,-119 66,-130"/>
</g>
<g style="fill:blue;stroke:black">
<circle cx="70" cy="-6" r="5.4"/>
<circle cx="70" cy="-134" r="5.4"/>
<circle cx="6" cy="-70" r="5.4"/>
<circle cx="134" cy="-70" r="5.4"/>
</g></g></svg>