<?xml version="1.0" encoding="UTF-8" standalone="no"?>
<svg width="150pt" height="156pt" viewBox="0.00 0.00 150.00 156.00" xmlns="http://www.w3.org/2000/svg" xmlns:xlink="http://www.w3.org/1999/xlink">
<g transform="translate(4 152)"> 
<g style="fill:none;stroke:black">
<path d="M9,-36C22,-54 69,-119 83,-137"/>
<path d="M86,-11C86,-33 86,-115 86,-137"/>
<path d="M83,-10C70,-28 23,-93 9,-111"/>
<path d="M81,-8C66,-12 26,-25 11,-30"/>
<path d="M6,-38C6,-53 6,-95 6,-110"/>
<path d="M133,-78C124,-91 99,-125 89,-137"/>
<path d="M133,-70C124,-57 99,-23 89,-11"/>
<path d="M131,-76C109,-83 32,-108 11,-114"/>
<path d="M131,-72C109,-65 32,-40 11,-34"/>
<path d="M11,-118C26,-122 66,-135 81,-140"/>
</g>
<g style="fill:blue;stroke:black">
<circle cx="86" cy="-6" r="5.4"/>
<circle cx="86" cy="-142" r="5.4"/>
<circle cx="6" cy="-32" r="5.4"/>
<circle cx="6" cy="-116" r="5.4"/>
<circle cx="136" cy="-74" r="5.4"/>
</g></g></svg>