<?xml version="1.0" encoding="UTF-8" standalone="no"?>
<svg width="202pt" height="202pt" viewBox="0.00 0.00 202.00 202.00" xmlns="http://www.w3.org/2000/svg" xmlns:xlink="http://www.w3.org/1999/xlink">
<g transform="translate(4 198)"> 
<g style="fill:none;stroke:black">
<path d="M99,-11C109,-35 149,-133 159,-156"/>
<path d="M97,-12C97,-38 97,-155 97,-182"/>
<path d="M95,-11C85,-35 45,-133 35,-156"/>
<path d="M93,-10C79,-24 26,-77 10,-93"/>
<path d="M92,-8C80,-13 50,-26 38,-31"/>
<path d="M8,-102C13,-114 26,-144 31,-156"/>
<path d="M39,-161C60,-161 134,-161 155,-161"/>
<path d="M38,-35C62,-45 160,-85 183,-95"/>
<path d="M38,-163C50,-168 80,-181 92,-186"/>
<path d="M37,-37C56,-56 138,-138 157,-157"/>
<path d="M35,-38C45,-62 85,-160 95,-183"/>
<path d="M33,-39C33,-60 33,-134 33,-155"/>
<path d="M31,-38C26,-50 13,-80 8,-92"/>
<path d="M186,-102C181,-114 168,-144 163,-156"/>
<path d="M184,-101C170,-115 117,-168 101,-184"/>
<path d="M183,-99C159,-109 61,-149 38,-159"/>
<path d="M182,-97C156,-97 39,-97 12,-97"/>
<path d="M163,-38C168,-50 181,-80 186,-92"/>
<path d="M161,-39C161,-60 161,-134 161,-155"/>
<path d="M159,-38C149,-62 109,-160 99,-183"/>
<path d="M157,-37C138,-56 56,-138 37,-157"/>
<path d="M156,-35C132,-45 34,-85 11,-95"/>
<path d="M156,-33C135,-33 60,-33 39,-33"/>
<path d="M156,-31C144,-26 114,-13 102,-8"/>
<path d="M11,-99C35,-109 133,-149 156,-159"/>
<path d="M102,-186C114,-181 144,-168 156,-163"/>
<path d="M101,-10C115,-24 168,-77 184,-93"/>
<path d="M10,-101C24,-115 77,-168 93,-184"/>
</g>
<g style="fill:blue;stroke:black">
<circle cx="97" cy="-6" r="5.4"/>
<circle cx="97" cy="-188" r="5.4"/>
<circle cx="6" cy="-97" r="5.4"/>
<circle cx="33" cy="-33" r="5.4"/>
<circle cx="33" cy="-161" r="5.4"/>
<circle cx="188" cy="-97" r="5.4"/>
<circle cx="161" cy="-33" r="5.4"/>
<circle cx="161" cy="-161" r="5.4"/>
</g></g></svg>